<svg width="172" height="172" viewBox="0 0 172 172" fill="none" xmlns="http://www.w3.org/2000/svg">
<g filter="url(#filter0_d_0_14)">
<mask id="mask0_0_14" style="mask-type:alpha" maskUnits="userSpaceOnUse" x="0" y="0" width="172" height="172">
<rect x="0.529297" y="0.26178" width="170.882" height="170.882" fill="white"/>
</mask>
<g mask="url(#mask0_0_14)">
<path d="M86.1485 28.0302C83.5378 28.0302 81.3139 27.1094 79.4769 25.2676C77.6352 23.4306 76.7143 21.2068 76.7143 18.5961V13.256C76.7143 10.6453 77.6352 8.41911 79.4769 6.57738C81.3139 4.74039 83.5378 3.8219 86.1485 3.8219C88.7592 3.8219 90.9854 4.74039 92.8271 6.57738C94.6641 8.41911 95.5826 10.6453 95.5826 13.256V18.5961C95.5826 21.2068 94.6641 23.4306 92.8271 25.2676C90.9854 27.1094 88.7592 28.0302 86.1485 28.0302ZM86.1485 167.584C83.5378 167.584 81.3139 166.666 79.4769 164.829C77.6352 162.987 76.7143 160.761 76.7143 158.15V152.81C76.7143 150.199 77.6352 147.975 79.4769 146.138C81.3139 144.297 83.5378 143.376 86.1485 143.376C88.7592 143.376 90.9854 144.297 92.8271 146.138C94.6641 147.975 95.5826 150.199 95.5826 152.81V158.15C95.5826 160.761 94.6641 162.987 92.8271 164.829C90.9854 166.666 88.7592 167.584 86.1485 167.584ZM153.077 94.9591C150.467 94.9591 148.243 94.0383 146.406 92.1965C144.564 90.3596 143.643 88.1357 143.643 85.525C143.643 82.9143 144.564 80.6881 146.406 78.8464C148.243 77.0094 150.467 76.0909 153.077 76.0909H158.417C161.028 76.0909 163.254 77.0094 165.096 78.8464C166.933 80.6881 167.852 82.9143 167.852 85.525C167.852 88.1357 166.933 90.3596 165.096 92.1965C163.254 94.0383 161.028 94.9591 158.417 94.9591H153.077ZM13.5235 94.9591C10.9128 94.9591 8.68894 94.0383 6.85195 92.1965C5.01022 90.3596 4.08936 88.1357 4.08936 85.525C4.08936 82.9143 5.01022 80.6881 6.85195 78.8464C8.68894 77.0094 10.9128 76.0909 13.5235 76.0909H18.8636C21.4743 76.0909 23.7005 77.0094 25.5422 78.8464C27.3792 80.6881 28.2977 82.9143 28.2977 85.525C28.2977 88.1357 27.3792 90.3596 25.5422 92.1965C23.7005 94.0383 21.4743 94.9591 18.8636 94.9591H13.5235ZM129.403 41.9144C127.504 40.0157 126.555 37.761 126.555 35.1503C126.555 32.5396 127.504 30.2849 129.403 28.3862L130.649 27.1402C132.429 25.3602 134.624 24.4702 137.235 24.4702C139.846 24.4702 142.101 25.4195 143.999 27.3182C145.898 29.2169 146.847 31.4716 146.847 34.0823C146.847 36.693 145.898 38.9477 143.999 40.8464L142.753 42.0924C140.973 43.8724 138.778 44.7625 136.167 44.7625C133.556 44.7625 131.302 43.8131 129.403 41.9144ZM27.9417 144.088C26.043 142.189 25.0936 139.934 25.0936 137.324C25.0936 134.713 26.043 132.458 27.9417 130.56L29.1877 129.314C30.9677 127.534 33.1631 126.644 35.7738 126.644C38.3845 126.644 40.6392 127.593 42.5379 129.492C44.4366 131.39 45.3859 133.645 45.3859 136.256C45.3859 138.866 44.4366 141.121 42.5379 143.02L41.2919 144.266C39.5118 146.046 37.3165 146.936 34.7058 146.936C32.0951 146.936 29.8404 145.987 27.9417 144.088ZM130.471 144.088L129.225 142.842C127.445 141.062 126.555 138.866 126.555 136.256C126.555 133.645 127.504 131.39 129.403 129.492C131.302 127.593 133.556 126.644 136.167 126.644C138.778 126.644 141.033 127.593 142.931 129.492L144.177 130.738C145.957 132.518 146.847 134.713 146.847 137.324C146.847 139.934 145.898 142.189 143.999 144.088C142.101 145.987 139.846 146.936 137.235 146.936C134.624 146.936 132.37 145.987 130.471 144.088ZM28.6537 41.9144L27.7637 41.0244C25.9837 39.2444 25.0936 37.049 25.0936 34.4383C25.0936 31.8276 26.043 29.5729 27.9417 27.6742C29.8404 25.7755 32.0951 24.8262 34.7058 24.8262C37.3165 24.8262 39.5712 25.7755 41.4699 27.6742L42.3599 28.5642C44.1399 30.3443 45.0299 32.5396 45.0299 35.1503C45.0299 37.761 44.0806 40.0157 42.1819 41.9144C40.2832 43.8131 38.0285 44.7625 35.4178 44.7625C32.8071 44.7625 30.5524 43.8131 28.6537 41.9144ZM85.9705 133.764C72.6796 133.764 61.3468 129.076 51.972 119.701C42.5972 110.327 37.9098 98.9939 37.9098 85.703C37.9098 72.4122 42.5972 61.0793 51.972 51.7046C61.3468 42.3298 72.6796 37.6424 85.9705 37.6424C99.2613 37.6424 110.594 42.3298 119.969 51.7046C129.344 61.0793 134.031 72.4122 134.031 85.703C134.031 98.9939 129.344 110.327 119.969 119.701C110.594 129.076 99.2613 133.764 85.9705 133.764Z" fill="white"/>
</g>
</g>
<defs>
<filter id="filter0_d_0_14" x="1.88407" y="3.8219" width="168.173" height="168.173" filterUnits="userSpaceOnUse" color-interpolation-filters="sRGB">
<feFlood flood-opacity="0" result="BackgroundImageFix"/>
<feColorMatrix in="SourceAlpha" type="matrix" values="0 0 0 0 0 0 0 0 0 0 0 0 0 0 0 0 0 0 127 0" result="hardAlpha"/>
<feOffset dy="2.20528"/>
<feGaussianBlur stdDeviation="1.10264"/>
<feComposite in2="hardAlpha" operator="out"/>
<feColorMatrix type="matrix" values="0 0 0 0 0 0 0 0 0 0 0 0 0 0 0 0 0 0 0.15 0"/>
<feBlend mode="normal" in2="BackgroundImageFix" result="effect1_dropShadow_0_14"/>
<feBlend mode="normal" in="SourceGraphic" in2="effect1_dropShadow_0_14" result="shape"/>
</filter>
</defs>
</svg>
